HIERARCHY
ROOT Hips
{
	OFFSET -3.958830 18.904000 13.208200
	CHANNELS 6 Xposition Yposition Zposition Zrotation Yrotation Xrotation 
	JOINT LHipJoint
	{
		OFFSET 0.000000 0.000000 0.000000
		CHANNELS 3 Zrotation Yrotation Xrotation
		JOINT LeftUpLeg
		{
			OFFSET 1.800000 -1.400000 0.085000
			CHANNELS 3 Zrotation Yrotation Xrotation
			JOINT LeftLeg
			{
				OFFSET 2.215000 -6.000000 0.000000
				CHANNELS 3 Zrotation Yrotation Xrotation
				JOINT LeftFoot
				{
					OFFSET 2.500000 -6.900000 0.000000
					CHANNELS 3 Zrotation Yrotation Xrotation
					JOINT LeftToeBase
					{
						OFFSET 0.200000 -0.500000 1.950000
						CHANNELS 3 Zrotation Yrotation Xrotation
						End Site
						{
							OFFSET 0.000000 0.000000 0.000000
						}
					}
				}
			}
		}
	}
	JOINT RHipJoint
	{
		OFFSET 0.000000 0.000000 0.000000
		CHANNELS 3 Zrotation Yrotation Xrotation
		JOINT RightUpLeg
		{
			OFFSET -1.800000 -1.400000 0.085000
			CHANNELS 3 Zrotation Yrotation Xrotation
			JOINT RightLeg
			{
				OFFSET -2.215000 -6.000000 0.000000
				CHANNELS 3 Zrotation Yrotation Xrotation
				JOINT RightFoot
				{
					OFFSET -2.500000 -6.900000 0.000000
					CHANNELS 3 Zrotation Yrotation Xrotation
					JOINT RightToeBase
					{
						OFFSET -0.200000 -0.500000 1.950000
						CHANNELS 3 Zrotation Yrotation Xrotation
						End Site
						{
							OFFSET 0.000000 0.000000 0.000000
						}
					}
				}
			}
		}
	}
	JOINT LowerBack
	{
		OFFSET 0.000000 0.000000 0.000000
		CHANNELS 3 Zrotation Yrotation Xrotation
		JOINT Spine
		{
			OFFSET -0.087000 1.940000 -0.288900
			CHANNELS 3 Zrotation Yrotation Xrotation
			JOINT Spine1
			{
				OFFSET 0.000000 1.950000 0.060000
				CHANNELS 3 Zrotation Yrotation Xrotation
				JOINT Neck
				{
					OFFSET 0.000000 0.000000 0.000000
					CHANNELS 3 Zrotation Yrotation Xrotation
					JOINT Neck1
					{
						OFFSET 0.000000 1.600000 0.340000
						CHANNELS 3 Zrotation Yrotation Xrotation
						JOINT Head
						{
							OFFSET 0.000000 1.667000 -0.240000
							CHANNELS 3 Zrotation Yrotation Xrotation
							End Site
							{
								OFFSET 0.000000 0.000000 0.000000
							}
						}
					}
				}
				JOINT LeftShoulder
				{
					OFFSET 0.000000 0.000000 0.000000
					CHANNELS 3 Zrotation Yrotation Xrotation
					JOINT LeftArm
					{
						OFFSET 2.700000 1.550000 -0.730000
						CHANNELS 3 Zrotation Yrotation Xrotation
						JOINT LeftForeArm
						{
							OFFSET 5.450000 0.000000 0.000000
							CHANNELS 3 Zrotation Yrotation Xrotation
							JOINT LeftHand
							{
								OFFSET 3.450000 0.000000 0.000000
								CHANNELS 3 Zrotation Yrotation Xrotation
								JOINT LeftHandIndex1
								{
									OFFSET 0.750000 0.000000 0.000000
									CHANNELS 3 Zrotation Yrotation Xrotation
									End Site
									{
										OFFSET 0.000000 0.000000 0.000000
									}
								}
							}
						}
					}
				}
				JOINT RightShoulder
				{
					OFFSET 0.000000 0.000000 0.000000
					CHANNELS 3 Zrotation Yrotation Xrotation
					JOINT RightArm
					{
						OFFSET -2.700000 1.550000 -0.730000
						CHANNELS 3 Zrotation Yrotation Xrotation
						JOINT RightForeArm
						{
							OFFSET -5.450000 0.000000 0.000000
							CHANNELS 3 Zrotation Yrotation Xrotation
							JOINT RightHand
							{
								OFFSET -3.450000 0.000000 0.000000
								CHANNELS 3 Zrotation Yrotation Xrotation
								JOINT RightHandIndex1
								{
									OFFSET -0.750000 0.000000 0.000000
									CHANNELS 3 Zrotation Yrotation Xrotation
									End Site
									{
										OFFSET 0.000000 0.000000 0.000000
									}
								}
							}
						}
					}
				}
			}
		}
	}
}
MOTION
Frames: 12
Frame Time: 0.016667
0.220010 15.905340 -2.032350 7.795227 -30.747229 3.778541 -14.666942 10.922040 4.341228 -4.906920 -6.130259 -43.856416 1.120486 3.072572 16.306557 -1.524237 3.014565 3.781111 0.656990 0.063230 0.626730 18.976861 -11.373792 2.762717 -0.949492 1.302012 -6.405981 12.506661 -7.623611 17.535281 -0.403329 -5.138934 2.855178 0.497610 0.554480 0.290450 -5.698955 2.136169 -7.155046 22.556787 6.562860 8.835548 -4.969220 7.563206 5.063792 -1.093456 -6.414475 -2.694770 -9.429858 2.865616 22.985337 -11.319970 3.688830 -8.193540 -24.968045 4.479143 -0.620280 -11.629710 10.313702 -0.117079 6.145159 -11.004037 -1.451538 -4.302045 2.811582 0.533810 0.573770 -0.373290 0.291650 24.605710 2.058201 0.590853 40.348577 9.705679 -1.605044 45.330753 46.231630 15.737303 1.498617 -2.001535 -0.602540 0.456030 -0.029260 -0.517140 
0.229010 15.841280 -2.017080 7.164890 -29.921301 5.072158 -14.648282 10.755597 4.375470 -5.391300 -6.290034 -44.300501 1.411863 2.679008 13.172797 -1.538981 2.715789 3.932109 0.552200 -0.064200 0.587450 19.021000 -11.385013 2.780591 -0.148065 1.081289 -6.679613 12.541964 -7.467725 16.517310 -0.338856 -5.061801 2.902508 0.425890 0.601290 0.279320 -5.770265 2.418002 -7.177178 23.029577 7.181806 7.546420 -5.297103 7.980200 4.057191 -0.757936 -5.506329 -2.650346 -7.751160 2.028196 23.069814 -12.255540 4.083550 -5.984920 -23.726618 4.987075 -1.044591 -12.350834 7.856240 -0.246312 8.570259 -10.854277 -1.486029 -4.416983 2.752524 0.495620 0.620640 -0.429400 0.260860 22.776947 0.936273 0.759829 43.970427 9.403728 -1.718226 39.231658 43.191003 12.103471 1.522461 -1.937808 -0.635570 0.441580 0.008410 -0.522550 
0.249690 15.765700 -1.999580 6.697095 -28.703963 6.052050 -14.627107 10.561766 4.411808 -6.178888 -6.536083 -44.458327 0.965932 2.427615 10.040374 -1.528506 2.454761 4.046558 0.491520 -0.104190 0.530540 19.072773 -11.397411 2.800483 0.692668 0.676223 -6.441682 12.601838 -7.280260 15.057214 -0.309145 -5.017232 2.945512 0.392990 0.626440 0.290740 -5.852950 2.730816 -7.197250 23.265206 7.836376 6.269094 -5.237687 8.348074 3.086649 -0.519896 -4.388013 -2.293779 -5.735418 1.059670 23.211650 -13.134690 4.279080 -4.446680 -22.762171 5.482316 -1.471823 -12.932262 5.854760 -0.641010 9.604155 -13.918039 -1.558995 -4.466711 2.802714 0.436370 0.668350 -0.455460 0.255210 21.374106 -0.268451 0.427675 47.194660 10.013363 -1.210388 30.888853 35.542199 7.050125 1.554136 -1.846849 -0.621000 0.410380 0.025220 -0.504120 
0.264120 15.699170 -1.984170 6.039569 -27.365451 6.975434 -14.597313 10.448501 4.461503 -6.877719 -6.799455 -44.634754 0.646740 2.334418 8.517486 -1.433417 2.315762 4.130149 0.402660 -0.196780 0.437460 19.120106 -11.400698 2.823672 1.816256 0.357970 -6.493787 12.358364 -7.114686 14.413513 -0.253412 -4.955038 3.014263 0.311510 0.673220 0.271200 -5.925864 2.916407 -7.235640 23.857321 8.148596 5.388645 -4.721023 8.535577 1.443287 -0.991668 -4.216893 -2.033008 -5.522252 1.045240 23.922739 -12.390370 4.361550 -1.333060 -20.770333 6.850148 -1.771712 -16.097172 4.082229 -1.428611 11.622342 -18.503200 -1.825821 -4.470894 2.884005 0.364190 0.690450 -0.514210 0.265550 20.242282 -1.407076 0.030431 50.117446 10.658987 -0.349518 21.995066 26.262184 2.935822 1.664610 -1.741063 -0.606510 0.370440 0.037010 -0.461950 
0.284370 15.672240 -1.965830 5.492149 -25.938327 7.469840 -14.572274 10.437032 4.507560 -7.909571 -7.162734 -44.360068 0.290129 2.341038 8.885577 -1.326680 2.239991 4.146445 0.366240 -0.227620 0.369750 19.147568 -11.367115 2.848550 2.328250 0.208260 -6.491526 12.324526 -6.970071 13.704392 -0.239402 -4.873517 3.054394 0.247620 0.656560 0.278890 -5.960031 2.878562 -7.280814 25.008375 8.006490 5.384256 -4.199728 8.627448 -0.110839 -1.625633 -4.983738 -1.800724 -7.006927 1.381937 24.635438 -11.761510 4.183160 0.067610 -20.373280 8.123805 -1.952862 -19.953318 3.344312 -2.300405 17.035574 -23.354670 -2.842848 -4.443202 2.980411 0.327840 0.663510 -0.514580 0.272360 20.826855 -1.825694 -0.230308 50.146393 10.358598 -0.243315 15.141249 18.772061 0.747491 1.780783 -1.665063 -0.547620 0.305670 0.040310 -0.421480 
0.308410 15.687730 -1.948010 5.199632 -24.817906 7.560084 -14.570991 10.515918 4.589058 -9.493424 -7.740680 -43.702207 0.718456 2.308432 10.926819 -1.247866 2.242198 4.130840 0.345070 -0.264800 0.352900 19.137515 -11.289294 2.870984 2.343073 0.270398 -6.612043 12.635298 -6.984843 13.364617 -0.260466 -4.785236 3.087477 0.174440 0.612280 0.296470 -5.907474 2.615893 -7.365431 26.057231 7.505436 6.376639 -3.996174 8.615227 -1.655720 -1.958485 -5.763644 -1.839987 -8.611033 1.977873 25.326414 -11.966850 4.660060 -0.155700 -20.275381 9.519247 -1.907041 -22.796422 5.464472 -3.618088 16.701752 -33.780690 -3.882774 -4.302008 3.099510 0.369690 0.610010 -0.466860 0.271440 21.110246 -2.491369 -0.320047 49.915639 8.904572 -1.143514 10.424324 14.178874 -0.191994 1.872670 -1.576316 -0.507550 0.263320 0.040740 -0.412530 
0.323680 15.731160 -1.945310 4.893917 -23.843176 7.253492 -14.579358 10.676584 4.657328 -10.426526 -8.157552 -42.622061 0.472522 2.497293 13.800744 -1.171660 2.393611 4.054491 0.324110 -0.290030 0.344300 19.098018 -11.219689 2.866783 1.934318 0.843522 -7.714328 13.409422 -7.488815 15.557871 -0.284286 -4.810677 3.076883 0.119980 0.559250 0.268950 -5.797342 2.253170 -7.450791 26.801370 6.714766 7.948290 -3.690578 8.491830 -2.899695 -2.100559 -6.485614 -2.078831 -10.205829 2.426306 26.076399 -11.713320 4.688490 -1.082560 -20.558501 10.398330 -1.758777 -26.083855 7.444134 -5.008734 17.454951 -42.054328 -5.321305 -4.168953 3.107515 0.423990 0.537220 -0.424510 0.256560 21.504852 -2.695316 -0.349083 49.436599 7.730185 -2.015768 6.625592 10.706237 -0.624954 1.958675 -1.475490 -0.493090 0.259610 0.043400 -0.413230 
0.341920 15.793370 -1.936840 4.806867 -24.343069 6.997957 -14.588037 10.790954 4.754760 -11.640087 -8.696059 -41.574251 1.740992 2.382982 17.261784 -1.109303 2.626879 3.952125 0.318540 -0.319080 0.352020 19.055285 -11.164675 2.840942 0.412353 2.225148 -10.282369 14.631133 -8.579059 20.247625 -0.334612 -5.080509 2.953157 0.079910 0.513650 0.253490 -5.726599 2.010792 -7.521996 27.932384 5.954415 9.642570 -4.372762 8.557036 -3.522599 -1.943055 -7.722935 -2.580878 -12.654828 3.042268 26.653775 -11.343780 4.378620 -2.028070 -21.022759 10.784274 -1.617191 -29.372079 9.221968 -6.594268 18.713590 -47.310569 -6.959538 -4.060702 3.073965 0.486080 0.468830 -0.389680 0.244050 21.474862 -2.099481 -0.001529 49.378597 6.694762 -2.693677 4.233672 7.888214 -0.724141 2.026950 -1.409808 -0.489460 0.256680 0.047540 -0.422420 
0.366650 15.853210 -1.912530 4.995021 -24.444327 6.601930 -14.625081 10.784459 4.815525 -12.913681 -9.415572 -40.104104 2.877358 2.248232 20.936542 -1.093913 3.023891 3.809182 0.303920 -0.350930 0.351430 19.012485 -10.959796 2.893784 -3.003574 4.251137 -13.597307 18.451097 -10.951136 25.736031 -0.499491 -5.896418 2.646853 0.066160 0.512210 0.223490 -5.652610 1.754745 -7.615118 28.830382 4.887768 11.101050 -5.817535 8.150585 -3.879699 -1.390867 -8.759649 -2.914547 -14.534452 4.036598 26.256103 -10.923560 4.343410 -4.254100 -21.235385 11.448931 -1.880166 -32.333982 9.891443 -7.919155 19.210613 -51.731624 -8.379801 -3.991476 2.964907 0.575580 0.425890 -0.367590 0.236130 20.481935 -2.352247 0.221758 50.209301 5.618184 -3.587434 4.102712 7.939334 -0.659994 2.015443 -1.315842 -0.538090 0.321160 0.074900 -0.445090 
0.371180 15.891330 -1.910660 5.074646 -24.542322 6.644760 -14.705506 10.640920 4.886655 -14.198361 -10.327452 -39.454288 4.884800 1.900503 25.289981 -1.006245 3.546958 3.632433 0.297690 -0.364290 0.350010 18.973839 -10.519056 3.131871 -6.886549 6.607950 -18.476180 23.131238 -14.423495 32.066775 -0.781740 -7.165855 2.200626 0.056870 0.517790 0.181260 -5.554905 1.394150 -7.814283 29.226208 3.423784 12.668419 -6.953775 7.367972 -4.623984 -1.047014 -9.988135 -3.364258 -16.697365 5.355802 25.092927 -10.254550 4.458720 -5.762220 -21.252779 11.974717 -1.812805 -35.208340 11.400281 -9.488913 19.626905 -55.127344 -9.663126 -3.911261 2.877313 0.633420 0.386330 -0.354200 0.249030 19.829907 -2.187647 0.354858 50.884182 5.070710 -4.157323 3.464942 7.160613 -0.631850 2.037957 -1.251622 -0.577340 0.378310 0.070080 -0.448860 
0.351300 15.911160 -1.924240 5.244556 -25.108666 5.928772 -14.790679 10.539952 4.801277 -14.652188 -10.755656 -38.170886 5.952781 1.913427 29.828305 -0.865973 4.209751 3.377773 0.335760 -0.323730 0.348090 18.943562 -9.981905 3.563881 -11.440785 8.793827 -23.597320 27.552834 -19.157384 39.546514 -1.230210 -8.900731 1.620047 0.063750 0.487480 0.153790 -5.471784 0.905274 -8.052498 29.188121 1.866028 14.867538 -7.639313 6.468308 -5.203993 -0.953765 -11.481079 -3.805504 -19.950171 6.798965 24.977631 -8.461180 3.585200 -7.499650 -21.869802 12.132698 -1.850655 -37.677147 12.362829 -11.131233 21.346403 -57.363259 -11.451578 -3.797864 2.819811 0.684970 0.311190 -0.319160 0.268720 20.259156 -1.463587 0.611777 50.067998 4.571520 -4.616736 3.421443 6.895047 -0.552810 2.060980 -1.210913 -0.567820 0.405140 0.053930 -0.434200 
0.324130 15.913200 -1.937960 4.718345 -25.137265 5.136774 -14.868849 10.470060 4.553551 -14.670600 -10.592046 -36.475567 7.226583 1.915484 33.757351 -0.751919 4.866112 3.124711 0.388130 -0.256390 0.330710 18.933575 -9.425466 4.112043 -15.622567 10.454834 -28.563136 32.083687 -24.763397 46.382956 -1.745202 -10.717387 1.080003 0.100760 0.470760 0.123130 -5.410431 0.421997 -8.258945 29.415434 0.652005 16.904268 -7.536510 5.939025 -5.066102 -1.039164 -12.775602 -4.366423 -23.178877 7.859496 24.624222 -5.933850 1.876400 -9.391710 -22.993360 11.440740 -1.890832 -39.767711 12.880970 -12.885108 22.299029 -59.636532 -13.204230 -3.691956 2.765535 0.725490 0.245790 -0.297630 0.293770 21.672181 -0.115006 1.316873 47.525549 2.760463 -5.338324 3.110724 7.022869 -0.514934 2.043597 -1.181031 -0.560870 0.447650 0.046620 -0.413270 
